<svg xmlns="http://www.w3.org/2000/svg" version="1.1" xmlns:xlink="http://www.w3.org/1999/xlink" xmlns:svgjs="http://svgjs.dev/svgjs" width="1000" height="161" viewBox="0 0 1000 161"><g transform="matrix(1,0,0,1,-0.6060606060606233,0.11274216840294571)"><svg viewBox="0 0 396 64" data-background-color="#ffffff" preserveAspectRatio="xMidYMid meet" height="161" width="1000" xmlns="http://www.w3.org/2000/svg" xmlns:xlink="http://www.w3.org/1999/xlink"><g id="tight-bounds" transform="matrix(1,0,0,1,0.2400000000000091,-0.044816762594962256)"><svg viewBox="0 0 395.52 64.08963352518991" height="64.08963352518991" width="395.52"><g><svg viewBox="0 0 488.1267967297356 79.09553882542886" height="64.08963352518991" width="395.52"><g transform="matrix(1,0,0,1,0,10.93143843390515)"><svg viewBox="0 0 395.52 57.23266195761856" height="57.23266195761856" width="395.52"><g id="textblocktransform"><svg viewBox="0 0 395.52 57.23266195761856" height="57.23266195761856" width="395.52" id="textblock"><g><svg viewBox="0 0 395.52 57.23266195761856" height="57.23266195761856" width="395.52"><g transform="matrix(1,0,0,1,0,0)"><svg width="395.52" viewBox="2 -35.349998474121094 247.72000122070312 35.849998474121094" height="57.23266195761856" data-palette-color="#000000"><path d="M11.15 0L2.2 0Q2 0 2-0.25L2-0.25 2.1-34.6Q2.1-34.8 2.3-34.8L2.3-34.8 11.9-34.8Q14.75-34.8 17-33.43 19.25-32.05 20.55-29.8 21.85-27.55 21.85-24.9L21.85-24.9Q21.85-22.75 20.88-20.9 19.9-19.05 18.55-17.9L18.55-17.9Q20-16.45 20.8-14.55 21.6-12.65 21.6-10.55L21.6-10.55Q21.6-7.65 20.2-5.25 18.8-2.85 16.43-1.43 14.05 0 11.15 0L11.15 0ZM8.1-28.85L8.1-21 11.9-21Q13.65-21 14.73-22.23 15.8-23.45 15.8-24.9L15.8-24.9Q15.8-26.5 14.65-27.68 13.5-28.85 11.9-28.85L11.9-28.85 8.1-28.85ZM8.1-14.95L8.05-6.1 11.15-6.1Q12.95-6.1 14.25-7.43 15.55-8.75 15.55-10.55L15.55-10.55Q15.55-12.35 14.25-13.65 12.95-14.95 11.15-14.95L11.15-14.95 8.1-14.95ZM41.55 0L25.4 0Q25.2 0 25.2-0.25L25.2-0.25 25.25-34.55Q25.25-34.8 25.5-34.8L25.5-34.8 31.05-34.8Q31.3-34.8 31.3-34.55L31.3-34.55 31.25-6.15 41.55-6.15Q41.8-6.15 41.8-5.9L41.8-5.9 41.8-0.25Q41.8 0 41.55 0L41.55 0ZM53.59 0.5L53.59 0.5Q50.89 0.5 48.67-0.88 46.45-2.25 45.09-4.53 43.74-6.8 43.74-9.55L43.74-9.55 43.8-25.4Q43.8-28.15 45.12-30.4 46.45-32.65 48.7-34 50.95-35.35 53.59-35.35L53.59-35.35Q56.3-35.35 58.5-34 60.7-32.65 62.02-30.4 63.34-28.15 63.34-25.4L63.34-25.4 63.39-9.55Q63.39-6.8 62.07-4.53 60.75-2.25 58.52-0.88 56.3 0.5 53.59 0.5ZM53.59-5.55L53.59-5.55Q55.09-5.55 56.22-6.78 57.34-8 57.34-9.55L57.34-9.55 57.3-25.4Q57.3-27.05 56.24-28.2 55.2-29.35 53.59-29.35L53.59-29.35Q52.05-29.35 50.95-28.23 49.84-27.1 49.84-25.4L49.84-25.4 49.84-9.55Q49.84-7.9 50.95-6.73 52.05-5.55 53.59-5.55ZM76.39 0.5L76.39 0.5Q73.64 0.5 71.42-0.88 69.19-2.25 67.89-4.55 66.59-6.85 66.59-9.7L66.59-9.7 66.64-25.3Q66.64-28.05 67.92-30.33 69.19-32.6 71.42-33.98 73.64-35.35 76.39-35.35L76.39-35.35Q79.14-35.35 81.34-34 83.54-32.65 84.84-30.38 86.14-28.1 86.14-25.3L86.14-25.3 86.14-23Q86.14-22.8 85.94-22.8L85.94-22.8 80.34-22.8Q80.14-22.8 80.14-23L80.14-23 80.14-25.3Q80.14-26.95 79.07-28.15 77.99-29.35 76.39-29.35L76.39-29.35Q74.59-29.35 73.64-28.13 72.69-26.9 72.69-25.3L72.69-25.3 72.69-9.7Q72.69-7.85 73.77-6.7 74.84-5.55 76.39-5.55L76.39-5.55Q77.99-5.55 79.07-6.83 80.14-8.1 80.14-9.7L80.14-9.7 80.14-12Q80.14-12.2 80.34-12.2L80.34-12.2 85.99-12.2Q86.19-12.2 86.19-12L86.19-12 86.19-9.7Q86.19-6.85 84.87-4.55 83.54-2.25 81.34-0.88 79.14 0.5 76.39 0.5ZM95.69 0L90.04 0Q89.84 0 89.84-0.25L89.84-0.25 89.94-34.55Q89.94-34.8 90.14-34.8L90.14-34.8 95.74-34.8Q95.94-34.8 95.94-34.55L95.94-34.55 95.94-22.7 103.79-34.6Q103.94-34.8 104.14-34.8L104.14-34.8 109.89-34.8Q110.09-34.8 109.99-34.6L109.99-34.6 101.34-20.8 111.04-0.2Q111.14 0 110.79 0L110.79 0 104.69 0Q104.44 0 104.39-0.2L104.39-0.2 97.64-14.9 95.89-12.15 95.89-0.25Q95.89 0 95.69 0L95.69 0ZM123.19 0L117.54 0Q117.34 0 117.34-0.25L117.34-0.25 117.34-28.75 110.84-28.75Q110.59-28.75 110.59-29L110.59-29 110.64-34.6Q110.64-34.8 110.84-34.8L110.84-34.8 129.84-34.8Q130.09-34.8 130.09-34.6L130.09-34.6 130.09-29Q130.09-28.75 129.89-28.75L129.89-28.75 123.34-28.75 123.39-0.25Q123.39 0 123.19 0L123.19 0ZM138.39 0L132.74 0Q132.54 0 132.54-0.25L132.54-0.25 132.64-34.6Q132.64-34.8 132.84-34.8L132.84-34.8 142.94-34.8Q145.64-34.8 147.91-33.48 150.19-32.15 151.54-29.93 152.89-27.7 152.89-24.9L152.89-24.9Q152.89-23.05 152.34-21.58 151.79-20.1 151.04-19.07 150.29-18.05 149.69-17.55L149.69-17.55Q152.39-14.55 152.39-10.5L152.39-10.5 152.44-0.25Q152.44 0 152.19 0L152.19 0 146.54 0Q146.34 0 146.34-0.15L146.34-0.15 146.34-10.5Q146.34-12.3 145.06-13.63 143.79-14.95 141.94-14.95L141.94-14.95 138.64-14.95 138.59-0.25Q138.59 0 138.39 0L138.39 0ZM138.64-28.8L138.64-20.95 142.94-20.95Q144.49-20.95 145.69-22.1 146.89-23.25 146.89-24.9L146.89-24.9Q146.89-26.5 145.71-27.65 144.54-28.8 142.94-28.8L142.94-28.8 138.64-28.8ZM154.93-0.25L154.93-0.25 161.13-34.6Q161.18-34.8 161.38-34.8L161.38-34.8 168.63-34.8Q168.83-34.8 168.88-34.6L168.88-34.6 174.83-0.25Q174.88 0 174.63 0L174.63 0 169.08 0Q168.88 0 168.83-0.25L168.83-0.25 168.28-3.9 161.48-3.9 160.93-0.25Q160.88 0 160.68 0L160.68 0 155.13 0Q154.93 0 154.93-0.25ZM164.73-23.3L162.48-9.25 167.28-9.25 165.23-23.3 164.93-25.15 164.73-23.3ZM187.18-0.05L178.23 0Q177.98 0 177.98-0.25L177.98-0.25 178.08-34.6Q178.08-34.8 178.28-34.8L178.28-34.8 187.63-34.85Q190.38-34.9 192.66-33.55 194.93-32.2 196.28-29.93 197.63-27.65 197.63-24.9L197.63-24.9 197.63-10.55Q197.63-7.65 196.23-5.28 194.83-2.9 192.48-1.5 190.13-0.1 187.18-0.05L187.18-0.05ZM184.13-28.8L184.08-6.15 187.18-6.15Q189.03-6.15 190.31-7.45 191.58-8.75 191.58-10.55L191.58-10.55 191.58-24.95Q191.58-26.55 190.41-27.73 189.23-28.9 187.63-28.85L187.63-28.85 184.13-28.8ZM217.93 0L201.78 0Q201.58 0 201.58-0.25L201.58-0.25 201.63-34.6Q201.63-34.8 201.83-34.8L201.83-34.8 217.88-34.8Q218.08-34.8 218.08-34.55L218.08-34.55 218.08-28.95Q218.08-28.75 217.88-28.75L217.88-28.75 207.63-28.75 207.63-20.95 217.88-20.95Q218.08-20.95 218.08-20.75L218.08-20.75 218.13-15.1Q218.13-14.9 217.93-14.9L217.93-14.9 207.63-14.9 207.63-6.15 217.93-6.15Q218.13-6.15 218.13-5.9L218.13-5.9 218.13-0.2Q218.13 0 217.93 0L217.93 0ZM228.43 0L222.83 0Q222.58 0 222.58-0.25L222.58-0.25 222.68-34.6Q222.68-34.8 222.88-34.8L222.88-34.8 238.88-34.8Q239.13-34.8 239.13-34.6L239.13-34.6 239.13-28.95Q239.13-28.75 238.93-28.75L238.93-28.75 228.68-28.75 228.68-21 238.93-21Q239.13-21 239.13-20.75L239.13-20.75 239.18-15.1Q239.18-14.9 238.93-14.9L238.93-14.9 228.68-14.9 228.68-0.25Q228.68 0 228.43 0L228.43 0ZM249.52 0L243.87 0Q243.62 0 243.62-0.25L243.62-0.25 243.67-34.6Q243.67-34.8 243.87-34.8L243.87-34.8 249.47-34.8Q249.67-34.8 249.67-34.6L249.67-34.6 249.72-0.25Q249.72 0 249.52 0L249.52 0Z" opacity="1" transform="matrix(1,0,0,1,0,0)" fill="#000000" class="wordmark-text-0" data-fill-palette-color="primary" id="text-0"></path></svg></g></svg></g></svg></g></svg></g><g transform="matrix(1,0,0,1,409.03125790430676,0)"><svg viewBox="0 0 79.09553882542886 79.09553882542886" height="79.09553882542886" width="79.09553882542886"><g data-palette-color="#000000"><rect width="21.619447278950556" height="79.09553882542886" fill="#000000" stroke="transparent" data-fill-palette-color="accent" x="0" fill-opacity="1"></rect><rect width="21.619447278950556" height="79.09553882542886" fill="#000000" stroke="transparent" data-fill-palette-color="accent" x="26.36517960847629" fill-opacity="0.75"></rect><rect width="21.619447278950556" height="79.09553882542886" fill="#000000" stroke="transparent" data-fill-palette-color="accent" x="52.73035921695258" fill-opacity="0.5"></rect></g></svg></g></svg></g><defs></defs></svg><rect width="395.52" height="64.08963352518991" fill="none" stroke="none" visibility="hidden"></rect></g></svg></g></svg>